<?xml version="1.0" encoding="utf-8"?>
<!-- Generator: Adobe Illustrator 16.0.0, SVG Export Plug-In . SVG Version: 6.00 Build 0)  -->
<!DOCTYPE svg PUBLIC "-//W3C//DTD SVG 1.1//EN" "http://www.w3.org/Graphics/SVG/1.1/DTD/svg11.dtd">
<svg version="1.1" id="Layer_1" xmlns="http://www.w3.org/2000/svg" xmlns:xlink="http://www.w3.org/1999/xlink" x="0px" y="0px"
	 width="430px" height="478px" viewBox="0 0 430 478" enable-background="new 0 0 430 478" xml:space="preserve">
<g>
	<path fill-rule="evenodd" clip-rule="evenodd" fill="#FFFFFF" d="M59.807,75.757c2.706-4.175,4.448-8.638,5.287-13.489
		c0.237-1.368-0.838-4.043,2.251-3.51c2.182,0.376,4.041,1.332,3.765,4.183c-0.366,3.781-0.902,7.581,0.189,12.249
		c3.578-4.279,5.658-8.654,6.191-13.271c1.399-12.088,4.936-23.471,9.821-34.526c1.495-3.382,2.821-6.839,4.243-10.254
		c0.388-0.932-0.047-3.068,1.693-2.257c1.414,0.658,4.135,0.209,3.831,3.453c-0.414,4.433-1.648,8.616-2.987,12.788
		c-3.006,9.365-6.613,18.521-9.832,27.806c-2.306,6.649-0.519,13.465,1.751,19.886c0.83,2.347,1.892,0.134,2.591-0.684
		c4.701-5.506,6.966-12.011,7.532-19.124c0.239-3.005,1.764-5.539,2.641-8.296c0.589-1.853,2.175-2.659,4.458-1.863
		c2.348,0.82,2.233,2.049,1.495,3.907c-2.121,5.33-2.641,11.051-3.76,16.615c-0.396,1.967-0.625,5.131,1.382,5.738
		c1.987,0.601,3.04-2.2,4.182-4.003c2.669-4.22,4.139-8.793,4.966-13.65c0.252-1.479,0.743-3.263,2.631-2.75
		c1.643,0.446,4.134,0.215,4.066,3.318c-0.05,2.312-0.416,4.457-1.307,6.543c-0.312,0.729-0.945,1.375-1.068,2.118
		c-0.459,2.747-1.944,5.901,1.494,7.724c2.596,1.376,5.067-0.372,7.046-4.133c0.752-1.432,0.645-4.375,3.82-2.935
		c2.912,1.32,2.279,3.507,1.433,5.646c-2.652,6.709-9.15,8.298-14.757,3.529c-1.978-1.684-3.158-2.546-5.143,0.265
		c-3.085,4.37-6.33,4.519-10.19,0.741c-1.919-1.879-2.783-1.645-3.979,0.56c-1.136,2.092-2.607,4.005-3.972,5.971
		c-2.052,2.952-4.327,2.816-7.119,0.821c-3.615-2.583-3.444-6.997-5.354-10.322c-0.717,0.046-1.048,0.393-1.282,0.922
		c-3.421,7.722-4.212,7.5-9.596,2.952c-1.803-1.522-2.528-0.493-3.254,0.991c-0.581,1.185-0.98,2.503-1.76,3.537
		c-1.335,1.772-3.019,2.515-5.005,0.77c-1.485-1.304-2.717-1.636-4.325,0.192c-5.719,6.503-10.616,5.643-14.539-2.382
		c-0.216-0.442-0.381-0.908-0.792-1.897c-2.968,4.528-3.912,9.333-5.536,13.803c-6.692,18.419-12.848,37.032-20.141,55.229
		c-0.802,2.002-0.949,4.112-1.59,6.113c-0.458,1.432-0.705,3.438-3.052,2.556c-1.655-0.621-3.384-1.005-2.698-3.792
		c1.969-7.987,2.962-16.166,5.861-23.998c1.108-2.995,2.767-5.593,3.044-8.233c0.762-7.236,4.682-12.828,6.601-19.2
		c3.542-11.757,11.196-21.62,15.438-33.085c1.019-2.752,1.241-6.32,4.888-7.493c0.185-0.06-0.069,0.973,0.408-0.545
		c1.537-4.881,1.219-5.095,1.885-7.724c0.787-3.11,1.838-6.169,3.136-9.042c2.833-6.274,6.524-12.174,8.243-19.231
		c-1.782-0.065-2.455,1.306-3.266,2.317C43.373,37.765,36.289,49.011,31.12,61.426c-3.354,8.056-7.352,15.86-9.342,24.431
		c-0.281,1.211-1.269,1.843-1.917,1.041c-1.052-1.304-4.041-1.101-2.961-4.218c4.715-13.6,9.731-27.049,17.442-39.308
		c4.172-6.633,7.655-13.756,13.116-19.491c2.082-2.185,4.7-3.846,6.99-5.843c2.218-1.936,4.404-1.389,6.598-0.106
		c2.304,1.345,1.148,3.118,0.568,4.876c-4.168,12.63-9.952,24.598-15.383,36.688c-3.309,7.365-2.398,14.73-1.889,22.215
		c0.065,0.947,0.38,2.208,1.781,2.327c1.184,0.101,2.035-0.529,2.685-1.444c2.375-3.347,4.788-6.507,4.949-11.049
		c0.109-3.073,1.8-6.061,2.511-9.151c0.719-3.126,2.912-2.623,4.925-2.161c2.405,0.553,1.364,2.607,1.176,3.989
		C61.836,68.134,59.193,71.548,59.807,75.757z"/>
	<path fill-rule="evenodd" clip-rule="evenodd" fill="#FFFFFF" d="M235.371,66.077c-1.934,0.574-3.926,0.86-5.618,1.73
		c-3.605,1.852-7.027,1.635-10.311-0.466c-1.232-0.789-1.612-0.323-2.086,0.627c-0.594,1.186-1.224,2.356-1.778,3.562
		c-0.642,1.397-0.862,3.415-3.017,2.986c-1.925-0.386-3.207-1.766-3.642-3.799c-0.273-1.273-0.623-2.531-0.919-3.716
		c-2.109,1.943-4.163,3.715-6.08,5.624c-5.324,5.3-10.403,6.582-15.427-0.203c-1.024-1.383-1.633-0.418-2.527,0.256
		c-2.964,2.233-6.214,3.902-9.703,5.286c-5.997,2.379-11.257,0.833-16.276-2.361c-3.01-1.917-3.965-6.444-2.492-10.429
		c2.322-6.276,6.798-11.073,11.463-15.548c2.936-2.816,1.96-3.782-1.001-5.004c-1.072-0.443-2.052-1.23-2.913-2.032
		c-3.163-2.942-3.065-5.231,0.446-7.729c4.772-3.395,9.603-6.747,15.837-6.73c0.797,0.002,1.723-0.149,2.361,0.194
		c1.139,0.611,3.484,0.47,2.865,2.52c-0.594,1.967-2.065,0.477-3.278,0.233c-3.182-0.635-5.1,2.336-7.89,3.081
		c-1.838,0.49-3.396,2.007-5.099,3.031c-2.525,1.52-1.982,2.711,0.278,3.961c3.197,1.767,6.279,1.277,9.57,0.174
		c2.626-0.88,6.47-3.712,7.749,0.616c0.987,3.338-3.556,3.282-5.842,4.381c-5.619,2.699-9.992,6.882-13.937,11.552
		c-2.057,2.434-3.75,5.15-5.097,8.064c-2.322,5.028,0.155,8.915,5.803,8.619c6.333-0.33,11.244-3.919,15.592-8.084
		c5.237-5.013,9.948-10.561,15.493-15.282c0.942-0.802,1.957-1.374,2.989-1.896c1.696-0.86,3.287,0.034,4.273,1.245
		c1.163,1.427,0.017,2.622-1.069,3.752c-3.746,3.896-8.293,7.055-11.049,11.866c-0.581,1.014-1.046,2.094-1.562,3.144
		c-0.399,0.812-0.251,1.581,0.338,2.204c0.811,0.858,1.651,0.478,2.518-0.021c3.426-1.979,5.872-4.874,8.05-8.12
		c6.538-9.745,10.472-20.714,14.988-31.414c0.678-1.611,1.466-3.423,3.322-3.612c1.484-0.151,2.63,1.211,3.189,2.595
		c0.591,1.462,0.011,2.83-0.792,4.146c-4.046,6.63-5.839,14.113-7.962,21.458c-0.23,0.793-1.401,2.025,0.138,2.689
		c1.113,0.481,1.521-0.643,2.098-1.365c1.679-2.1,3.815-3.664,6.063-5.118c1.521-0.984,2.975-1.268,4.329,0.031
		c1.334,1.28,1.396,2.706,0.177,4.243c-1.07,1.351-1.974,2.837-2.881,4.308c-0.573,0.931-2.262,1.614-1.322,2.93
		c0.744,1.041,2.295,0.654,3.401,0.453c5.416-0.985,7.468-5.6,9.746-9.71c0.976-1.761,1.249-4.208,3.776-3.659
		c2.857,0.622,2.355,3.093,1.738,5.183c-1.281,4.343,0.386,9.04-2.032,13.349c-1.26,2.244-2.383,2.659-4.281,1.516
		c-1.775-1.07-3.812-2.333-0.839-4.43C235.374,66.863,235.316,66.505,235.371,66.077z"/>
	<path fill-rule="evenodd" clip-rule="evenodd" fill="#FFFFFF" d="M113.305,29.128c2.135,0.007,3.97,0.033,4.788,2.153
		c0.255,0.661-0.143,1.512-0.888,1.499C115.008,32.736,114.302,30.963,113.305,29.128z"/>
	<g>
		<path fill="none" d="M315.033,39.538c-16.905-0.206-33.815-0.102-50.725-0.146c-1.55-0.004-3.007,0.09-3.772,1.601
			c-4.012,7.925-8.226,15.769-10.632,24.392c-0.268,0.958-0.881,2.227,0.475,2.768c1.241,0.495,1.577-0.727,2.307-1.51
			c3.444-3.687,4.585-8.611,7.189-12.734c1.167-1.848,2.42-3.379,4.734-2.708c2.497,0.724,1,2.886,1.265,4.421
			c0.026,0.154,0.389,0.249,0.762,0.469c0.316-0.333,0.762-0.641,0.986-1.065c1.059-2.003,2.373-3.231,4.74-1.852
			c2.486,1.447,1.133,3.198,0.268,4.761c-1.018,1.839-2.279,3.548-2.061,6.181c6.543-2.57,6.621-2.53,9.341-7.89
			c0.876-1.726,1.978-3.339,3.482-4.24c1.326-0.795,3.178-3.03,4.791-0.947c3.01,3.889,6.433,5.387,11.102,3.387
			c0.342-0.147,0.948-0.237,1.159-0.048c3.196,2.848,5.677,0.832,8.545-0.84c3.081-1.796,5.676-0.601,6.23,2.25
			c0.318,1.642-0.834,4.108,0.572,4.778c1.554,0.74,3.07-1.579,4.817-2.136c0.75-0.238,1.446-0.655,2.154-1.017
			c7.216-3.676,7.651-10.865,0.902-15.263C321.053,40.447,317.98,39.574,315.033,39.538z"/>
		<g>
			<path fill="none" d="M315.033,39.538c-16.905-0.206-33.815-0.102-50.725-0.146c-1.55-0.004-3.007,0.09-3.772,1.601
				c-4.012,7.925-8.226,15.769-10.632,24.392c-0.268,0.958-0.881,2.227,0.475,2.768c1.241,0.495,1.577-0.727,2.307-1.51
				c3.444-3.687,4.585-8.611,7.189-12.734c1.167-1.848,2.42-3.379,4.734-2.708c2.497,0.724,1,2.886,1.265,4.421
				c0.026,0.154,0.389,0.249,0.762,0.469c0.316-0.333,0.762-0.641,0.986-1.065c1.059-2.003,2.373-3.231,4.74-1.852
				c2.486,1.447,1.133,3.198,0.268,4.761c-1.018,1.839-2.279,3.548-2.061,6.181c6.543-2.57,6.621-2.53,9.341-7.89
				c0.876-1.726,1.978-3.339,3.482-4.24c1.326-0.795,3.178-3.03,4.791-0.947c3.01,3.889,6.433,5.387,11.102,3.387
				c0.342-0.147,0.948-0.237,1.159-0.048c3.196,2.848,5.677,0.832,8.545-0.84c3.081-1.796,5.676-0.601,6.23,2.25
				c0.318,1.642-0.834,4.108,0.572,4.778c1.554,0.74,3.07-1.579,4.817-2.136c0.75-0.238,1.446-0.655,2.154-1.017
				c7.216-3.676,7.651-10.865,0.902-15.263C321.053,40.447,317.98,39.574,315.033,39.538z"/>
			<path fill="#FFFFFF" d="M412.347,32.518c-0.321-1.25-1.257-1.55-2.446-1.563c-3.179-0.039-6.36-0.067-9.533-0.246
				c-12.726-0.711-25.456-0.05-38.11,0.838c-16.624,1.168-33.27,2.06-49.898,2.582c-10.903,0.341-21.877-1.672-32.823-2.575
				c-3.98-0.328-7.973-0.497-11.961-0.735c-1.513-0.089-2.641-0.468-2.169-2.398c0.382-1.563,0.849-3.293-1.314-3.954
				c-2.193-0.667-3.33,0.884-3.901,2.537c-0.94,2.719-2.835,3.02-5.315,2.989c-5.595-0.07-11.192,0.104-16.789,0.174
				c-1.305,0.016-2.895-0.358-3.294,1.415c-0.414,1.839,0.771,2.985,2.291,3.729c3.01,1.47,6.305,1.954,9.553,2.509
				c8.523,1.458,7.983,1.216,5.039,9.218c-2.284,6.207-7.123,11.375-7.042,18.632c0.039,3.476-0.032,6.605,3.432,8.01
				c3.707,1.501,5.652-1.655,7.737-3.954c0.339-0.374,0.412-0.974,0.693-1.415c2.737-4.295,6.542-4.67,10.037-0.91
				c2.458,2.643,4.973,3.414,7.929,0.792c1.635-1.452,3.158-1.723,5.356-0.495c2.772,1.549,5.356,0.917,7.566-1.93
				c1.419-1.828,1.533-4.726,3.671-5.593c2.101-0.854,5.401-1.686,6.738-0.658c1.315,1.01-0.628,3.872-1.8,5.709
				c-0.281,0.438-0.476,0.952-0.619,1.458c-0.362,1.278-0.849,2.544,0.729,3.502c1.615,0.979,3.049,0.842,4.348-0.426
				c0.651-0.635,1.35-1.367,1.648-2.192c1.124-3.11,3.715-5.048,5.688-7.479c0.437-0.539,0.801-1.166,1.544-0.952
				c0.783,0.224,0.719,0.997,0.732,1.666c0.019,0.931-0.074,1.891,0.123,2.787c0.836,3.81,4.408,5.58,6.932,3.2
				c2.903-2.74,6.467-4.105,9.917-5.74c4.404-2.089,6.761-8.032,5.267-12.71c-1.188-3.718-3.886-6.131-6.813-8.763
				c3.154-1.437,6.112-0.575,8.965-0.774c15.033-1.054,30.044-2.481,45.132-2.536c8.681-0.033,17.362-0.09,26.042-0.036
				c1.776,0.01,3.479-0.248,5.031-0.939C411.656,34.844,412.726,33.983,412.347,32.518z M322.762,57.411
				c-0.708,0.361-1.404,0.778-2.154,1.017c-1.747,0.557-3.263,2.876-4.817,2.136c-1.406-0.67-0.254-3.136-0.572-4.778
				c-0.554-2.85-3.15-4.045-6.23-2.25c-2.868,1.672-5.349,3.688-8.545,0.84c-0.211-0.189-0.817-0.099-1.159,0.048
				c-4.669,2-8.092,0.502-11.102-3.387c-1.612-2.083-3.465,0.152-4.791,0.947c-1.504,0.901-2.606,2.515-3.482,4.24
				c-2.72,5.36-2.798,5.32-9.341,7.89c-0.218-2.633,1.043-4.342,2.061-6.181c0.865-1.563,2.218-3.314-0.268-4.761
				c-2.367-1.379-3.681-0.151-4.74,1.852c-0.224,0.425-0.67,0.732-0.986,1.065c-0.374-0.221-0.736-0.315-0.762-0.469
				c-0.265-1.535,1.231-3.698-1.265-4.421c-2.313-0.671-3.566,0.86-4.734,2.708c-2.604,4.123-3.745,9.048-7.189,12.734
				c-0.73,0.784-1.066,2.005-2.307,1.51c-1.356-0.541-0.743-1.809-0.475-2.768c2.406-8.624,6.62-16.467,10.632-24.392
				c0.765-1.511,2.222-1.605,3.772-1.601c16.909,0.044,33.819-0.06,50.725,0.146c2.947,0.036,6.02,0.909,8.631,2.61
				C330.413,46.546,329.978,53.735,322.762,57.411z"/>
		</g>
	</g>
</g>
<g>
	<path fill-rule="evenodd" clip-rule="evenodd" fill="#F2CC3D" d="M59.807,233.257c2.706-4.175,4.448-8.638,5.287-13.489
		c0.237-1.368-0.838-4.043,2.251-3.51c2.182,0.376,4.041,1.332,3.765,4.183c-0.366,3.781-0.902,7.581,0.189,12.249
		c3.578-4.279,5.658-8.654,6.191-13.271c1.399-12.088,4.936-23.471,9.821-34.526c1.495-3.382,2.821-6.839,4.243-10.254
		c0.388-0.932-0.047-3.068,1.693-2.257c1.414,0.658,4.135,0.209,3.831,3.453c-0.414,4.433-1.648,8.616-2.987,12.788
		c-3.006,9.365-6.613,18.521-9.832,27.806c-2.306,6.649-0.519,13.465,1.751,19.886c0.83,2.347,1.892,0.134,2.591-0.684
		c4.701-5.506,6.966-12.011,7.532-19.124c0.239-3.005,1.764-5.539,2.641-8.296c0.589-1.853,2.175-2.659,4.458-1.863
		c2.348,0.82,2.233,2.049,1.495,3.907c-2.121,5.33-2.641,11.051-3.76,16.615c-0.396,1.967-0.625,5.131,1.382,5.738
		c1.987,0.601,3.04-2.2,4.182-4.003c2.669-4.22,4.139-8.793,4.966-13.65c0.252-1.479,0.743-3.263,2.631-2.75
		c1.643,0.446,4.134,0.215,4.066,3.318c-0.05,2.312-0.416,4.457-1.307,6.543c-0.312,0.729-0.945,1.375-1.068,2.118
		c-0.459,2.747-1.944,5.901,1.494,7.724c2.596,1.376,5.067-0.372,7.046-4.133c0.752-1.432,0.645-4.375,3.82-2.935
		c2.912,1.32,2.279,3.507,1.433,5.646c-2.652,6.709-9.15,8.298-14.757,3.529c-1.978-1.684-3.158-2.546-5.143,0.265
		c-3.085,4.37-6.33,4.519-10.19,0.741c-1.919-1.879-2.783-1.645-3.979,0.56c-1.136,2.092-2.607,4.005-3.972,5.971
		c-2.052,2.952-4.327,2.816-7.119,0.821c-3.615-2.583-3.444-6.997-5.354-10.322c-0.717,0.046-1.048,0.393-1.282,0.922
		c-3.421,7.722-4.212,7.5-9.596,2.952c-1.803-1.522-2.528-0.493-3.254,0.991c-0.581,1.185-0.98,2.503-1.76,3.537
		c-1.335,1.772-3.019,2.515-5.005,0.77c-1.485-1.304-2.717-1.636-4.325,0.192c-5.719,6.503-10.616,5.643-14.539-2.382
		c-0.216-0.442-0.381-0.908-0.792-1.897c-2.968,4.528-3.912,9.333-5.536,13.803c-6.692,18.419-12.848,37.032-20.141,55.229
		c-0.802,2.002-0.949,4.112-1.59,6.113c-0.458,1.432-0.705,3.438-3.052,2.556c-1.655-0.621-3.384-1.005-2.698-3.792
		c1.969-7.987,2.962-16.166,5.861-23.998c1.108-2.995,2.767-5.593,3.044-8.233c0.762-7.236,4.682-12.828,6.601-19.2
		c3.542-11.757,11.196-21.62,15.438-33.085c1.019-2.752,1.241-6.32,4.888-7.493c0.185-0.06-0.069,0.973,0.408-0.545
		c1.537-4.881,1.219-5.095,1.885-7.724c0.787-3.11,1.838-6.169,3.136-9.042c2.833-6.274,6.524-12.174,8.243-19.231
		c-1.782-0.065-2.455,1.306-3.266,2.317c-8.392,10.458-15.476,21.703-20.645,34.119c-3.354,8.056-7.352,15.86-9.342,24.431
		c-0.281,1.211-1.269,1.843-1.917,1.041c-1.052-1.304-4.041-1.101-2.961-4.218c4.715-13.6,9.731-27.049,17.442-39.308
		c4.172-6.633,7.655-13.756,13.116-19.491c2.082-2.185,4.7-3.846,6.99-5.843c2.218-1.936,4.404-1.389,6.598-0.106
		c2.304,1.345,1.148,3.118,0.568,4.876c-4.168,12.63-9.952,24.598-15.383,36.688c-3.309,7.365-2.398,14.73-1.889,22.215
		c0.065,0.947,0.38,2.208,1.781,2.327c1.184,0.101,2.035-0.529,2.685-1.444c2.375-3.347,4.788-6.507,4.949-11.049
		c0.109-3.073,1.8-6.061,2.511-9.151c0.719-3.126,2.912-2.623,4.925-2.161c2.405,0.553,1.364,2.607,1.176,3.989
		C61.836,225.634,59.193,229.048,59.807,233.257z"/>
	<path fill-rule="evenodd" clip-rule="evenodd" fill="#F2CC3D" d="M235.371,223.577c-1.934,0.574-3.926,0.86-5.618,1.73
		c-3.605,1.852-7.027,1.635-10.311-0.466c-1.232-0.789-1.612-0.323-2.086,0.627c-0.594,1.186-1.224,2.356-1.778,3.562
		c-0.642,1.397-0.862,3.415-3.017,2.986c-1.925-0.386-3.207-1.766-3.642-3.799c-0.273-1.273-0.623-2.531-0.919-3.716
		c-2.109,1.943-4.163,3.715-6.08,5.624c-5.324,5.3-10.403,6.582-15.427-0.203c-1.024-1.383-1.633-0.418-2.527,0.256
		c-2.964,2.233-6.214,3.902-9.703,5.286c-5.997,2.379-11.257,0.833-16.276-2.361c-3.01-1.917-3.965-6.444-2.492-10.429
		c2.322-6.276,6.798-11.073,11.463-15.548c2.936-2.816,1.96-3.782-1.001-5.004c-1.072-0.443-2.052-1.23-2.913-2.032
		c-3.163-2.942-3.065-5.231,0.446-7.729c4.772-3.395,9.603-6.747,15.837-6.73c0.797,0.002,1.723-0.149,2.361,0.194
		c1.139,0.611,3.484,0.47,2.865,2.52c-0.594,1.967-2.065,0.477-3.278,0.233c-3.182-0.635-5.1,2.336-7.89,3.081
		c-1.838,0.49-3.396,2.007-5.099,3.031c-2.525,1.52-1.982,2.711,0.278,3.961c3.197,1.767,6.279,1.277,9.57,0.174
		c2.626-0.88,6.47-3.712,7.749,0.616c0.987,3.338-3.556,3.282-5.842,4.381c-5.619,2.699-9.992,6.882-13.937,11.552
		c-2.057,2.434-3.75,5.15-5.097,8.064c-2.322,5.028,0.155,8.915,5.803,8.619c6.333-0.33,11.244-3.919,15.592-8.084
		c5.237-5.013,9.948-10.561,15.493-15.282c0.942-0.802,1.957-1.374,2.989-1.896c1.696-0.86,3.287,0.034,4.273,1.245
		c1.163,1.427,0.017,2.622-1.069,3.752c-3.746,3.896-8.293,7.055-11.049,11.866c-0.581,1.014-1.046,2.094-1.562,3.144
		c-0.399,0.812-0.251,1.581,0.338,2.204c0.811,0.858,1.651,0.478,2.518-0.021c3.426-1.979,5.872-4.874,8.05-8.12
		c6.538-9.745,10.472-20.714,14.988-31.414c0.678-1.611,1.466-3.423,3.322-3.612c1.484-0.151,2.63,1.211,3.189,2.595
		c0.591,1.462,0.011,2.83-0.792,4.146c-4.046,6.63-5.839,14.113-7.962,21.458c-0.23,0.793-1.401,2.025,0.138,2.689
		c1.113,0.481,1.521-0.643,2.098-1.365c1.679-2.1,3.815-3.664,6.063-5.118c1.521-0.984,2.975-1.268,4.329,0.031
		c1.334,1.28,1.396,2.706,0.177,4.243c-1.07,1.351-1.974,2.837-2.881,4.308c-0.573,0.931-2.262,1.614-1.322,2.93
		c0.744,1.041,2.295,0.654,3.401,0.453c5.416-0.985,7.468-5.6,9.746-9.71c0.976-1.761,1.249-4.208,3.776-3.659
		c2.857,0.622,2.355,3.093,1.738,5.183c-1.281,4.343,0.386,9.04-2.032,13.349c-1.26,2.244-2.383,2.659-4.281,1.516
		c-1.775-1.07-3.812-2.333-0.839-4.43C235.374,224.363,235.316,224.005,235.371,223.577z"/>
	<path fill-rule="evenodd" clip-rule="evenodd" fill="#F2CC3D" d="M113.305,186.628c2.135,0.007,3.97,0.033,4.788,2.153
		c0.255,0.661-0.143,1.512-0.888,1.499C115.008,190.236,114.302,188.463,113.305,186.628z"/>
	<g>
		<path fill="none" d="M315.033,197.038c-16.905-0.206-33.815-0.102-50.725-0.146c-1.55-0.004-3.007,0.09-3.772,1.601
			c-4.012,7.925-8.226,15.769-10.632,24.392c-0.268,0.958-0.881,2.227,0.475,2.768c1.241,0.495,1.577-0.727,2.307-1.51
			c3.444-3.687,4.585-8.611,7.189-12.734c1.167-1.848,2.42-3.379,4.734-2.708c2.497,0.724,1,2.886,1.265,4.421
			c0.026,0.154,0.389,0.249,0.762,0.469c0.316-0.333,0.762-0.641,0.986-1.065c1.059-2.003,2.373-3.231,4.74-1.852
			c2.486,1.447,1.133,3.198,0.268,4.761c-1.018,1.839-2.279,3.548-2.061,6.181c6.543-2.57,6.621-2.53,9.341-7.89
			c0.876-1.726,1.978-3.339,3.482-4.24c1.326-0.795,3.178-3.03,4.791-0.947c3.01,3.889,6.433,5.387,11.102,3.387
			c0.342-0.147,0.948-0.237,1.159-0.048c3.196,2.848,5.677,0.832,8.545-0.84c3.081-1.796,5.676-0.601,6.23,2.25
			c0.318,1.642-0.834,4.108,0.572,4.778c1.554,0.74,3.07-1.579,4.817-2.136c0.75-0.238,1.446-0.655,2.154-1.017
			c7.216-3.676,7.651-10.865,0.902-15.263C321.053,197.947,317.98,197.074,315.033,197.038z"/>
		<g>
			<path fill="none" d="M315.033,197.038c-16.905-0.206-33.815-0.102-50.725-0.146c-1.55-0.004-3.007,0.09-3.772,1.601
				c-4.012,7.925-8.226,15.769-10.632,24.392c-0.268,0.958-0.881,2.227,0.475,2.768c1.241,0.495,1.577-0.727,2.307-1.51
				c3.444-3.687,4.585-8.611,7.189-12.734c1.167-1.848,2.42-3.379,4.734-2.708c2.497,0.724,1,2.886,1.265,4.421
				c0.026,0.154,0.389,0.249,0.762,0.469c0.316-0.333,0.762-0.641,0.986-1.065c1.059-2.003,2.373-3.231,4.74-1.852
				c2.486,1.447,1.133,3.198,0.268,4.761c-1.018,1.839-2.279,3.548-2.061,6.181c6.543-2.57,6.621-2.53,9.341-7.89
				c0.876-1.726,1.978-3.339,3.482-4.24c1.326-0.795,3.178-3.03,4.791-0.947c3.01,3.889,6.433,5.387,11.102,3.387
				c0.342-0.147,0.948-0.237,1.159-0.048c3.196,2.848,5.677,0.832,8.545-0.84c3.081-1.796,5.676-0.601,6.23,2.25
				c0.318,1.642-0.834,4.108,0.572,4.778c1.554,0.74,3.07-1.579,4.817-2.136c0.75-0.238,1.446-0.655,2.154-1.017
				c7.216-3.676,7.651-10.865,0.902-15.263C321.053,197.947,317.98,197.074,315.033,197.038z"/>
			<path fill="#F2CC3D" d="M412.347,190.018c-0.321-1.25-1.257-1.55-2.446-1.563c-3.179-0.039-6.36-0.067-9.533-0.246
				c-12.726-0.711-25.456-0.05-38.11,0.838c-16.624,1.168-33.27,2.06-49.898,2.582c-10.903,0.341-21.877-1.672-32.823-2.575
				c-3.98-0.328-7.973-0.497-11.961-0.735c-1.513-0.089-2.641-0.468-2.169-2.398c0.382-1.563,0.849-3.293-1.314-3.954
				c-2.193-0.667-3.33,0.884-3.901,2.537c-0.94,2.719-2.835,3.02-5.315,2.989c-5.595-0.07-11.192,0.104-16.789,0.174
				c-1.305,0.016-2.895-0.358-3.294,1.415c-0.414,1.839,0.771,2.985,2.291,3.729c3.01,1.47,6.305,1.954,9.553,2.509
				c8.523,1.458,7.983,1.216,5.039,9.218c-2.284,6.207-7.123,11.375-7.042,18.632c0.039,3.476-0.032,6.605,3.432,8.01
				c3.707,1.501,5.652-1.655,7.737-3.954c0.339-0.374,0.412-0.974,0.693-1.415c2.737-4.295,6.542-4.67,10.037-0.91
				c2.458,2.643,4.973,3.414,7.929,0.792c1.635-1.452,3.158-1.723,5.356-0.495c2.772,1.549,5.356,0.917,7.566-1.93
				c1.419-1.828,1.533-4.726,3.671-5.593c2.101-0.854,5.401-1.686,6.738-0.658c1.315,1.01-0.628,3.872-1.8,5.709
				c-0.281,0.438-0.476,0.952-0.619,1.458c-0.362,1.278-0.849,2.544,0.729,3.502c1.615,0.979,3.049,0.842,4.348-0.426
				c0.651-0.635,1.35-1.367,1.648-2.192c1.124-3.11,3.715-5.048,5.688-7.479c0.437-0.539,0.801-1.166,1.544-0.952
				c0.783,0.224,0.719,0.997,0.732,1.666c0.019,0.931-0.074,1.891,0.123,2.787c0.836,3.81,4.408,5.58,6.932,3.2
				c2.903-2.74,6.467-4.105,9.917-5.74c4.404-2.089,6.761-8.032,5.267-12.71c-1.188-3.718-3.886-6.131-6.813-8.763
				c3.154-1.437,6.112-0.575,8.965-0.774c15.033-1.054,30.044-2.481,45.132-2.536c8.681-0.033,17.362-0.09,26.042-0.036
				c1.776,0.01,3.479-0.248,5.031-0.939C411.656,192.344,412.726,191.483,412.347,190.018z M322.762,214.911
				c-0.708,0.361-1.404,0.778-2.154,1.017c-1.747,0.557-3.263,2.876-4.817,2.136c-1.406-0.67-0.254-3.136-0.572-4.778
				c-0.554-2.85-3.15-4.045-6.23-2.25c-2.868,1.672-5.349,3.688-8.545,0.84c-0.211-0.189-0.817-0.099-1.159,0.048
				c-4.669,2-8.092,0.502-11.102-3.387c-1.612-2.083-3.465,0.152-4.791,0.947c-1.504,0.901-2.606,2.515-3.482,4.24
				c-2.72,5.36-2.798,5.32-9.341,7.89c-0.218-2.633,1.043-4.342,2.061-6.181c0.865-1.563,2.218-3.314-0.268-4.761
				c-2.367-1.379-3.681-0.151-4.74,1.852c-0.224,0.425-0.67,0.732-0.986,1.065c-0.374-0.221-0.736-0.315-0.762-0.469
				c-0.265-1.535,1.231-3.698-1.265-4.421c-2.313-0.671-3.566,0.86-4.734,2.708c-2.604,4.123-3.745,9.048-7.189,12.734
				c-0.73,0.784-1.066,2.005-2.307,1.51c-1.356-0.541-0.743-1.809-0.475-2.768c2.406-8.624,6.62-16.467,10.632-24.392
				c0.765-1.511,2.222-1.605,3.772-1.601c16.909,0.044,33.819-0.06,50.725,0.146c2.947,0.036,6.02,0.909,8.631,2.61
				C330.413,204.046,329.978,211.235,322.762,214.911z"/>
		</g>
	</g>
</g>
<g>
	<path fill-rule="evenodd" clip-rule="evenodd" fill="#0E1529" d="M59.807,390.757c2.706-4.175,4.448-8.638,5.287-13.489
		c0.237-1.368-0.838-4.043,2.251-3.51c2.182,0.376,4.041,1.332,3.765,4.183c-0.366,3.781-0.902,7.581,0.189,12.249
		c3.578-4.279,5.658-8.654,6.191-13.271c1.399-12.088,4.936-23.471,9.821-34.526c1.495-3.382,2.821-6.839,4.243-10.254
		c0.388-0.932-0.047-3.068,1.693-2.257c1.414,0.658,4.135,0.209,3.831,3.453c-0.414,4.433-1.648,8.616-2.987,12.788
		c-3.006,9.365-6.613,18.521-9.832,27.806c-2.306,6.649-0.519,13.465,1.751,19.886c0.83,2.347,1.892,0.134,2.591-0.684
		c4.701-5.506,6.966-12.011,7.532-19.124c0.239-3.005,1.764-5.539,2.641-8.296c0.589-1.853,2.175-2.659,4.458-1.863
		c2.348,0.82,2.233,2.049,1.495,3.907c-2.121,5.33-2.641,11.051-3.76,16.615c-0.396,1.967-0.625,5.131,1.382,5.738
		c1.987,0.601,3.04-2.2,4.182-4.003c2.669-4.22,4.139-8.793,4.966-13.65c0.252-1.479,0.743-3.263,2.631-2.75
		c1.643,0.446,4.134,0.215,4.066,3.318c-0.05,2.312-0.416,4.457-1.307,6.543c-0.312,0.729-0.945,1.375-1.068,2.118
		c-0.459,2.747-1.944,5.901,1.494,7.724c2.596,1.376,5.067-0.372,7.046-4.133c0.752-1.432,0.645-4.375,3.82-2.935
		c2.912,1.32,2.279,3.507,1.433,5.646c-2.652,6.709-9.15,8.298-14.757,3.529c-1.978-1.684-3.158-2.546-5.143,0.265
		c-3.085,4.37-6.33,4.519-10.19,0.741c-1.919-1.879-2.783-1.645-3.979,0.56c-1.136,2.092-2.607,4.005-3.972,5.971
		c-2.052,2.952-4.327,2.816-7.119,0.821c-3.615-2.583-3.444-6.997-5.354-10.322c-0.717,0.046-1.048,0.393-1.282,0.922
		c-3.421,7.722-4.212,7.5-9.596,2.952c-1.803-1.522-2.528-0.493-3.254,0.991c-0.581,1.185-0.98,2.503-1.76,3.537
		c-1.335,1.772-3.019,2.515-5.005,0.77c-1.485-1.304-2.717-1.636-4.325,0.192c-5.719,6.503-10.616,5.643-14.539-2.382
		c-0.216-0.442-0.381-0.908-0.792-1.897c-2.968,4.528-3.912,9.333-5.536,13.803c-6.692,18.419-12.848,37.032-20.141,55.229
		c-0.802,2.002-0.949,4.112-1.59,6.113c-0.458,1.432-0.705,3.438-3.052,2.556c-1.655-0.621-3.384-1.005-2.698-3.792
		c1.969-7.987,2.962-16.166,5.861-23.998c1.108-2.995,2.767-5.593,3.044-8.233c0.762-7.236,4.682-12.828,6.601-19.2
		c3.542-11.757,11.196-21.62,15.438-33.085c1.019-2.752,1.241-6.32,4.888-7.493c0.185-0.06-0.069,0.973,0.408-0.545
		c1.537-4.881,1.219-5.095,1.885-7.724c0.787-3.11,1.838-6.169,3.136-9.042c2.833-6.274,6.524-12.174,8.243-19.231
		c-1.782-0.065-2.455,1.306-3.266,2.317c-8.392,10.458-15.476,21.703-20.645,34.119c-3.354,8.056-7.352,15.86-9.342,24.431
		c-0.281,1.211-1.269,1.843-1.917,1.041c-1.052-1.304-4.041-1.101-2.961-4.218c4.715-13.6,9.731-27.049,17.442-39.308
		c4.172-6.633,7.655-13.756,13.116-19.491c2.082-2.185,4.7-3.846,6.99-5.843c2.218-1.936,4.404-1.389,6.598-0.106
		c2.304,1.345,1.148,3.118,0.568,4.876c-4.168,12.63-9.952,24.598-15.383,36.688c-3.309,7.365-2.398,14.73-1.889,22.215
		c0.065,0.947,0.38,2.208,1.781,2.327c1.184,0.101,2.035-0.529,2.685-1.444c2.375-3.347,4.788-6.507,4.949-11.049
		c0.109-3.073,1.8-6.061,2.511-9.151c0.719-3.126,2.912-2.623,4.925-2.161c2.405,0.553,1.364,2.607,1.176,3.989
		C61.836,383.134,59.193,386.548,59.807,390.757z"/>
	<path fill-rule="evenodd" clip-rule="evenodd" fill="#0E1529" d="M235.371,381.077c-1.934,0.574-3.926,0.86-5.618,1.73
		c-3.605,1.852-7.027,1.635-10.311-0.466c-1.232-0.789-1.612-0.323-2.086,0.627c-0.594,1.186-1.224,2.356-1.778,3.562
		c-0.642,1.397-0.862,3.415-3.017,2.986c-1.925-0.386-3.207-1.766-3.642-3.799c-0.273-1.273-0.623-2.531-0.919-3.716
		c-2.109,1.943-4.163,3.715-6.08,5.624c-5.324,5.3-10.403,6.582-15.427-0.203c-1.024-1.383-1.633-0.418-2.527,0.256
		c-2.964,2.233-6.214,3.902-9.703,5.286c-5.997,2.379-11.257,0.833-16.276-2.361c-3.01-1.917-3.965-6.444-2.492-10.429
		c2.322-6.276,6.798-11.073,11.463-15.548c2.936-2.816,1.96-3.782-1.001-5.004c-1.072-0.443-2.052-1.23-2.913-2.032
		c-3.163-2.942-3.065-5.231,0.446-7.729c4.772-3.395,9.603-6.747,15.837-6.73c0.797,0.002,1.723-0.149,2.361,0.194
		c1.139,0.611,3.484,0.47,2.865,2.52c-0.594,1.967-2.065,0.477-3.278,0.233c-3.182-0.635-5.1,2.336-7.89,3.081
		c-1.838,0.49-3.396,2.007-5.099,3.031c-2.525,1.52-1.982,2.711,0.278,3.961c3.197,1.767,6.279,1.277,9.57,0.174
		c2.626-0.88,6.47-3.712,7.749,0.616c0.987,3.338-3.556,3.282-5.842,4.381c-5.619,2.699-9.992,6.882-13.937,11.552
		c-2.057,2.434-3.75,5.15-5.097,8.064c-2.322,5.028,0.155,8.915,5.803,8.619c6.333-0.33,11.244-3.919,15.592-8.084
		c5.237-5.013,9.948-10.561,15.493-15.282c0.942-0.802,1.957-1.374,2.989-1.896c1.696-0.86,3.287,0.034,4.273,1.245
		c1.163,1.427,0.017,2.622-1.069,3.752c-3.746,3.896-8.293,7.055-11.049,11.866c-0.581,1.014-1.046,2.094-1.562,3.144
		c-0.399,0.812-0.251,1.581,0.338,2.204c0.811,0.858,1.651,0.478,2.518-0.021c3.426-1.979,5.872-4.874,8.05-8.12
		c6.538-9.745,10.472-20.714,14.988-31.414c0.678-1.611,1.466-3.423,3.322-3.612c1.484-0.151,2.63,1.211,3.189,2.595
		c0.591,1.462,0.011,2.83-0.792,4.146c-4.046,6.63-5.839,14.113-7.962,21.458c-0.23,0.793-1.401,2.025,0.138,2.689
		c1.113,0.481,1.521-0.643,2.098-1.365c1.679-2.1,3.815-3.664,6.063-5.118c1.521-0.984,2.975-1.268,4.329,0.031
		c1.334,1.28,1.396,2.706,0.177,4.243c-1.07,1.351-1.974,2.837-2.881,4.308c-0.573,0.931-2.262,1.614-1.322,2.93
		c0.744,1.041,2.295,0.654,3.401,0.453c5.416-0.985,7.468-5.6,9.746-9.71c0.976-1.761,1.249-4.208,3.776-3.659
		c2.857,0.622,2.355,3.093,1.738,5.183c-1.281,4.343,0.386,9.04-2.032,13.349c-1.26,2.244-2.383,2.659-4.281,1.516
		c-1.775-1.07-3.812-2.333-0.839-4.43C235.374,381.863,235.316,381.505,235.371,381.077z"/>
	<path fill-rule="evenodd" clip-rule="evenodd" fill="#0E1529" d="M113.305,344.128c2.135,0.007,3.97,0.033,4.788,2.153
		c0.255,0.661-0.143,1.512-0.888,1.499C115.008,347.736,114.302,345.963,113.305,344.128z"/>
	<g>
		<path fill="none" d="M315.033,354.538c-16.905-0.206-33.815-0.102-50.725-0.146c-1.55-0.004-3.007,0.09-3.772,1.601
			c-4.012,7.925-8.226,15.769-10.632,24.392c-0.268,0.958-0.881,2.227,0.475,2.768c1.241,0.495,1.577-0.727,2.307-1.51
			c3.444-3.687,4.585-8.611,7.189-12.734c1.167-1.848,2.42-3.379,4.734-2.708c2.497,0.724,1,2.886,1.265,4.421
			c0.026,0.154,0.389,0.249,0.762,0.469c0.316-0.333,0.762-0.641,0.986-1.065c1.059-2.003,2.373-3.231,4.74-1.852
			c2.486,1.447,1.133,3.198,0.268,4.761c-1.018,1.839-2.279,3.548-2.061,6.181c6.543-2.57,6.621-2.53,9.341-7.89
			c0.876-1.726,1.978-3.339,3.482-4.24c1.326-0.795,3.178-3.03,4.791-0.947c3.01,3.889,6.433,5.387,11.102,3.387
			c0.342-0.147,0.948-0.237,1.159-0.048c3.196,2.848,5.677,0.832,8.545-0.84c3.081-1.796,5.676-0.601,6.23,2.25
			c0.318,1.642-0.834,4.108,0.572,4.778c1.554,0.74,3.07-1.579,4.817-2.136c0.75-0.238,1.446-0.655,2.154-1.017
			c7.216-3.676,7.651-10.865,0.902-15.263C321.053,355.447,317.98,354.574,315.033,354.538z"/>
		<g>
			<path fill="none" d="M315.033,354.538c-16.905-0.206-33.815-0.102-50.725-0.146c-1.55-0.004-3.007,0.09-3.772,1.601
				c-4.012,7.925-8.226,15.769-10.632,24.392c-0.268,0.958-0.881,2.227,0.475,2.768c1.241,0.495,1.577-0.727,2.307-1.51
				c3.444-3.687,4.585-8.611,7.189-12.734c1.167-1.848,2.42-3.379,4.734-2.708c2.497,0.724,1,2.886,1.265,4.421
				c0.026,0.154,0.389,0.249,0.762,0.469c0.316-0.333,0.762-0.641,0.986-1.065c1.059-2.003,2.373-3.231,4.74-1.852
				c2.486,1.447,1.133,3.198,0.268,4.761c-1.018,1.839-2.279,3.548-2.061,6.181c6.543-2.57,6.621-2.53,9.341-7.89
				c0.876-1.726,1.978-3.339,3.482-4.24c1.326-0.795,3.178-3.03,4.791-0.947c3.01,3.889,6.433,5.387,11.102,3.387
				c0.342-0.147,0.948-0.237,1.159-0.048c3.196,2.848,5.677,0.832,8.545-0.84c3.081-1.796,5.676-0.601,6.23,2.25
				c0.318,1.642-0.834,4.108,0.572,4.778c1.554,0.74,3.07-1.579,4.817-2.136c0.75-0.238,1.446-0.655,2.154-1.017
				c7.216-3.676,7.651-10.865,0.902-15.263C321.053,355.447,317.98,354.574,315.033,354.538z"/>
			<path fill="#0E1529" d="M412.347,347.518c-0.321-1.25-1.257-1.55-2.446-1.563c-3.179-0.039-6.36-0.067-9.533-0.246
				c-12.726-0.711-25.456-0.05-38.11,0.838c-16.624,1.168-33.27,2.06-49.898,2.582c-10.903,0.341-21.877-1.672-32.823-2.575
				c-3.98-0.328-7.973-0.497-11.961-0.735c-1.513-0.089-2.641-0.468-2.169-2.398c0.382-1.563,0.849-3.293-1.314-3.954
				c-2.193-0.667-3.33,0.884-3.901,2.537c-0.94,2.719-2.835,3.02-5.315,2.989c-5.595-0.07-11.192,0.104-16.789,0.174
				c-1.305,0.016-2.895-0.358-3.294,1.415c-0.414,1.839,0.771,2.985,2.291,3.729c3.01,1.47,6.305,1.954,9.553,2.509
				c8.523,1.458,7.983,1.216,5.039,9.218c-2.284,6.207-7.123,11.375-7.042,18.632c0.039,3.476-0.032,6.605,3.432,8.01
				c3.707,1.501,5.652-1.655,7.737-3.954c0.339-0.374,0.412-0.974,0.693-1.415c2.737-4.295,6.542-4.67,10.037-0.91
				c2.458,2.643,4.973,3.414,7.929,0.792c1.635-1.452,3.158-1.723,5.356-0.495c2.772,1.549,5.356,0.917,7.566-1.93
				c1.419-1.828,1.533-4.726,3.671-5.593c2.101-0.854,5.401-1.686,6.738-0.658c1.315,1.01-0.628,3.872-1.8,5.709
				c-0.281,0.438-0.476,0.952-0.619,1.458c-0.362,1.278-0.849,2.544,0.729,3.502c1.615,0.979,3.049,0.842,4.348-0.426
				c0.651-0.635,1.35-1.367,1.648-2.192c1.124-3.11,3.715-5.048,5.688-7.479c0.437-0.539,0.801-1.166,1.544-0.952
				c0.783,0.224,0.719,0.997,0.732,1.666c0.019,0.931-0.074,1.891,0.123,2.787c0.836,3.81,4.408,5.58,6.932,3.2
				c2.903-2.74,6.467-4.105,9.917-5.74c4.404-2.089,6.761-8.032,5.267-12.71c-1.188-3.718-3.886-6.131-6.813-8.763
				c3.154-1.437,6.112-0.575,8.965-0.774c15.033-1.054,30.044-2.481,45.132-2.536c8.681-0.033,17.362-0.09,26.042-0.036
				c1.776,0.01,3.479-0.248,5.031-0.939C411.656,349.844,412.726,348.983,412.347,347.518z M322.762,372.411
				c-0.708,0.361-1.404,0.778-2.154,1.017c-1.747,0.557-3.263,2.876-4.817,2.136c-1.406-0.67-0.254-3.136-0.572-4.778
				c-0.554-2.85-3.15-4.045-6.23-2.25c-2.868,1.672-5.349,3.688-8.545,0.84c-0.211-0.189-0.817-0.099-1.159,0.048
				c-4.669,2-8.092,0.502-11.102-3.387c-1.612-2.083-3.465,0.152-4.791,0.947c-1.504,0.901-2.606,2.515-3.482,4.24
				c-2.72,5.36-2.798,5.32-9.341,7.89c-0.218-2.633,1.043-4.342,2.061-6.181c0.865-1.563,2.218-3.314-0.268-4.761
				c-2.367-1.379-3.681-0.151-4.74,1.852c-0.224,0.425-0.67,0.732-0.986,1.065c-0.374-0.221-0.736-0.315-0.762-0.469
				c-0.265-1.535,1.231-3.698-1.265-4.421c-2.313-0.671-3.566,0.86-4.734,2.708c-2.604,4.123-3.745,9.048-7.189,12.734
				c-0.73,0.784-1.066,2.005-2.307,1.51c-1.356-0.541-0.743-1.809-0.475-2.768c2.406-8.624,6.62-16.467,10.632-24.392
				c0.765-1.511,2.222-1.605,3.772-1.601c16.909,0.044,33.819-0.06,50.725,0.146c2.947,0.036,6.02,0.909,8.631,2.61
				C330.413,361.546,329.978,368.735,322.762,372.411z"/>
		</g>
	</g>
</g>
</svg>
