<?xml version="1.0" encoding="utf-8"?>
<!-- Generator: Adobe Illustrator 19.1.0, SVG Export Plug-In . SVG Version: 6.00 Build 0)  -->
<svg version="1.1" id="Layer_1" xmlns="http://www.w3.org/2000/svg" xmlns:xlink="http://www.w3.org/1999/xlink" x="0px" y="0px"
	 viewBox="-243 245 512 512" style="enable-background:new -243 245 512 512;" xml:space="preserve">
<g>
	<path d="M174.2,309h-320.4c-17.5,0-32.8,12.6-32.8,29.9V660c0,17.4,15.3,32.9,32.8,32.9h320.3c17.6,0,30.8-15.6,30.8-32.9V338.9
		C205,321.6,191.7,309,174.2,309z M-60,629h-55V458h55V629z M-85.6,432H-86c-17.6,0-29-13.1-29-29.5c0-16.7,11.7-29.5,29.7-29.5
		s29,12.7,29.4,29.5C-55.9,418.9-67.3,432-85.6,432z M141,629H86v-93.5c0-22.4-8-37.7-27.9-37.7c-15.2,0-24.2,10.3-28.2,20.3
		c-1.5,3.6-1.9,8.5-1.9,13.5V629h-55V458h55v23.8c8-11.4,20.5-27.8,49.6-27.8c36.1,0,63.4,23.8,63.4,75.1V629z"/>
</g>
</svg>
